<!DOCTYPE svg PUBLIC "-//W3C//DTD SVG 1.1//EN" "http://www.w3.org/Graphics/SVG/1.1/DTD/svg11.dtd">
<!-- Uploaded to: SVG Repo, www.svgrepo.com, Transformed by: SVG Repo Mixer Tools -->
<svg width="800px" height="800px" viewBox="0 0 24 24" fill="none" xmlns="http://www.w3.org/2000/svg" transform="matrix(-1, 0, 0, 1, 0, 0)">
<g id="SVGRepo_bgCarrier" stroke-width="0"/>
<g id="SVGRepo_tracerCarrier" stroke-linecap="round" stroke-linejoin="round"/>
<g id="SVGRepo_iconCarrier"> <path d="M15.3 19.1C14.1219 19.6951 12.8199 20.0035 11.5 20C9.92179 19.9994 8.37488 19.5594 7.03258 18.7293C5.69028 17.8992 4.6056 16.7118 3.90003 15.3C3.30496 14.1219 2.99659 12.8199 3.00003 11.5V11C3.11502 8.91568 3.99479 6.94699 5.47089 5.47089C6.94699 3.99479 8.91568 3.11502 11 3.00003M15.3 3.90003C16.7118 4.6056 17.8992 5.69028 18.7293 7.03258C19.5594 8.37488 19.9994 9.92179 20 11.5C20.0035 12.8199 19.6951 14.1219 19.1 15.3L21 21L18 20M8 9.5H15M8 13.5H13" stroke="#ffffff" stroke-width="1.5" stroke-linecap="round" stroke-linejoin="round"/> </g>
</svg>